<?xml version="1.0" encoding="UTF-8"?>
<!DOCTYPE svg PUBLIC "-//W3C//DTD SVG 1.1//EN" "http://www.w3.org/Graphics/SVG/1.1/DTD/svg11.dtd">
<!-- Creator: CorelDRAW 2018 -->
<svg xmlns="http://www.w3.org/2000/svg" xml:space="preserve" width="10.16mm" height="10.16mm" version="1.1" style="shape-rendering:geometricPrecision; text-rendering:geometricPrecision; image-rendering:optimizeQuality; fill-rule:evenodd; clip-rule:evenodd"
viewBox="0 0 1016 1016"
 xmlns:xlink="http://www.w3.org/1999/xlink">
 <defs>
  <style type="text/css">
   <![CDATA[
    .fil0 {fill:black}
   ]]>
  </style>
 </defs>
 <g id="Слой_x0020_1">
  <metadata id="CorelCorpID_0Corel-Layer"/>
  <path class="fil0" d="M508 1016c-280.12,0 -508,-227.88 -508,-508 0,-280.12 227.88,-508 508,-508 94.89,0 187.45,26.33 267.68,76.17 14.02,8.7 18.32,27.13 9.62,41.15 -8.72,14.02 -27.14,18.35 -41.15,9.62 -70.75,-43.95 -152.41,-67.17 -236.15,-67.17 -247.16,0 -448.24,201.08 -448.24,448.24 0,247.16 201.08,448.23 448.24,448.23 247.15,0 448.24,-201.08 448.24,-448.24 0,-49.68 -8.06,-98.46 -23.97,-144.98 -5.34,-15.61 3,-32.61 18.62,-37.94 15.64,-5.31 32.61,3 37.94,18.62 18.02,52.76 27.17,108.04 27.17,164.31 0,280.11 -227.88,507.99 -508,507.99zm0 -335.65c-7.58,0 -14.91,-2.88 -20.46,-8.11l-239.06 -224.56c-12.03,-11.3 -12.62,-30.21 -1.32,-42.24 11.3,-12.01 30.21,-12.64 42.24,-1.31l216.06 202.97 392.61 -466.08c10.61,-12.62 29.48,-14.24 42.1,-3.6 12.62,10.63 14.24,29.48 3.6,42.1l-412.92 490.2c-5.28,6.27 -12.92,10.1 -21.11,10.58 -0.57,0.04 -1.16,0.05 -1.74,0.05z"/>
 </g>
</svg>
