<?xml version="1.0" encoding="UTF-8"?>
<!DOCTYPE svg PUBLIC "-//W3C//DTD SVG 1.1//EN" "http://www.w3.org/Graphics/SVG/1.1/DTD/svg11.dtd">
<!-- Creator: CorelDRAW 2018 -->
<svg xmlns="http://www.w3.org/2000/svg" xml:space="preserve" width="10.16mm" height="10.16mm" version="1.1" style="shape-rendering:geometricPrecision; text-rendering:geometricPrecision; image-rendering:optimizeQuality; fill-rule:evenodd; clip-rule:evenodd"
viewBox="0 0 1016 1016"
 xmlns:xlink="http://www.w3.org/1999/xlink"
 enable-background="new 0 0 512 512">
 <defs>
  <style type="text/css">
   <![CDATA[
    .fil0 {fill:black}
   ]]>
  </style>
 </defs>
 <g id="Слой_x0020_1">
  <metadata id="CorelCorpID_0Corel-Layer"/>
  <path class="fil0" d="M180.17 975.33c-48.16,0 -93.42,-18.77 -127.46,-52.8 -70.28,-70.29 -70.28,-184.65 0,-254.92l557.24 -557.28c44.9,-44.94 104.65,-69.66 168.18,-69.66 63.54,0 123.29,24.72 168.18,69.66 44.94,44.93 69.69,104.65 69.69,168.17 0,63.54 -24.72,123.26 -69.65,168.16l-438.68 438.63c-13.17,13.17 -34.49,13.17 -47.66,0 -13.17,-13.16 -13.17,-34.49 0,-47.66l438.67 -438.64c32.2,-32.19 49.9,-74.99 49.9,-120.49 0,-45.49 -17.74,-88.31 -49.93,-120.51 -32.2,-32.19 -74.99,-49.9 -120.52,-49.9 -45.52,0 -88.31,17.71 -120.51,49.9l-557.25 557.28c-43.97,44.01 -43.97,115.58 0,159.59 42.66,42.6 116.93,42.6 159.59,0l374.18 -374.22c10.18,-10.17 16.01,-24.25 16.01,-38.61 0,-14.56 -5.7,-28.28 -16.04,-38.62 -21.26,-21.26 -55.92,-21.33 -77.19,0l-255.55 255.58c-13.16,13.18 -34.5,13.18 -47.66,0 -13.17,-13.16 -13.17,-34.5 0,-47.66l255.54 -255.58c47.54,-47.53 124.93,-47.53 172.53,0 23.08,23.07 35.78,53.73 35.78,86.28 0,32.13 -13.03,63.56 -35.75,86.28l-374.18 374.22c-34.04,34.03 -79.3,52.8 -127.46,52.8z"/>
 </g>
</svg>
