<?xml version="1.0" encoding="UTF-8"?>
<!DOCTYPE svg PUBLIC "-//W3C//DTD SVG 1.1//EN" "http://www.w3.org/Graphics/SVG/1.1/DTD/svg11.dtd">
<!-- Creator: CorelDRAW 2018 -->
<svg xmlns="http://www.w3.org/2000/svg" xml:space="preserve" width="10.16mm" height="10.16mm" version="1.1" style="shape-rendering:geometricPrecision; text-rendering:geometricPrecision; image-rendering:optimizeQuality; fill-rule:evenodd; clip-rule:evenodd"
viewBox="0 0 1016 1016"
 xmlns:xlink="http://www.w3.org/1999/xlink">
 <defs>
  <style type="text/css">
   <![CDATA[
    .fil0 {fill:black}
   ]]>
  </style>
 </defs>
 <g id="Слой_x0020_1">
  <metadata id="CorelCorpID_0Corel-Layer"/>
  <path class="fil0" d="M507.11 1015.99c-85.13,0 -170.74,-21.22 -248.28,-64.88 -14.39,-8.1 -19.49,-26.33 -11.38,-40.72 8.1,-14.37 26.32,-19.51 40.72,-11.38 174.42,98.21 395.19,67.8 536.93,-73.92 174.84,-174.85 174.84,-459.32 0,-634.17 -174.85,-174.85 -459.34,-174.86 -634.2,0 -174.84,174.85 -174.84,459.32 0,634.17 11.68,11.68 11.68,30.61 0,42.29 -11.66,11.68 -30.6,11.68 -42.28,0 -198.16,-198.17 -198.16,-520.58 0,-718.75 198.16,-198.16 520.59,-198.16 718.75,0 198.16,198.17 198.16,520.58 0,718.75 -97.61,97.6 -228.35,148.61 -360.26,148.61zm-157.87 -309.57c-7.65,0 -15.3,-2.91 -21.14,-8.75 -11.68,-11.68 -11.68,-30.61 0,-42.29l137.61 -137.62 -137.61 -137.61c-11.68,-11.68 -11.68,-30.61 0,-42.29 11.68,-11.68 30.6,-11.68 42.28,0l137.62 137.62 137.61 -137.62c11.68,-11.68 30.6,-11.68 42.28,0 11.68,11.68 11.68,30.61 0,42.29l-137.61 137.61 137.62 137.62c11.68,11.68 11.68,30.61 0,42.29 -5.85,5.84 -13.49,8.75 -21.15,8.75 -7.65,0 -15.3,-2.91 -21.14,-8.75l-137.61 -137.62 -137.62 137.62c-5.84,5.84 -13.49,8.75 -21.14,8.75z"/>
 </g>
</svg>
