<?xml version="1.0" encoding="UTF-8"?>
<!DOCTYPE svg PUBLIC "-//W3C//DTD SVG 1.1//EN" "http://www.w3.org/Graphics/SVG/1.1/DTD/svg11.dtd">
<!-- Creator: CorelDRAW 2018 -->
<svg xmlns="http://www.w3.org/2000/svg" xml:space="preserve" width="10.16mm" height="10.16mm" version="1.1" style="shape-rendering:geometricPrecision; text-rendering:geometricPrecision; image-rendering:optimizeQuality; fill-rule:evenodd; clip-rule:evenodd"
viewBox="0 0 1016 1016"
 xmlns:xlink="http://www.w3.org/1999/xlink">
 <defs>
  <style type="text/css">
   <![CDATA[
    .fil0 {fill:#1D1D1B}
   ]]>
  </style>
 </defs>
 <g id="Слой_x0020_1">
  <metadata id="CorelCorpID_0Corel-Layer"/>
  <path class="fil0" d="M485.34 1006.6c6.27,6.28 14.47,9.4 22.69,9.4 8.2,0 16.41,-3.13 22.69,-9.4l338.96 -338.98c12.53,-12.55 12.53,-32.86 0,-45.39 -12.55,-12.53 -32.87,-12.53 -45.4,0l-284.15 284.19 0 -874.32c0,-17.72 -14.35,-32.1 -32.1,-32.1 -17.75,0 -32.1,14.36 -32.1,32.1l0 874.32 -284.22 -284.19c-12.53,-12.53 -32.85,-12.53 -45.37,0 -12.55,12.53 -12.55,32.84 0,45.39l339 338.98z"/>
 </g>
</svg>
