<?xml version="1.0" encoding="UTF-8"?>
<!DOCTYPE svg PUBLIC "-//W3C//DTD SVG 1.1//EN" "http://www.w3.org/Graphics/SVG/1.1/DTD/svg11.dtd">
<!-- Creator: CorelDRAW 2018 -->
<svg xmlns="http://www.w3.org/2000/svg" xml:space="preserve" width="10.16mm" height="10.16mm" version="1.1" style="shape-rendering:geometricPrecision; text-rendering:geometricPrecision; image-rendering:optimizeQuality; fill-rule:evenodd; clip-rule:evenodd"
viewBox="0 0 1016 1016"
 xmlns:xlink="http://www.w3.org/1999/xlink">
 <defs>
  <style type="text/css">
   <![CDATA[
    .fil0 {fill:black}
   ]]>
  </style>
 </defs>
 <g id="Слой_x0020_1">
  <metadata id="CorelCorpID_0Corel-Layer"/>
  <path class="fil0" d="M1015.98 508.88c0,85.13 -21.22,170.74 -64.88,248.28 -8.1,14.39 -26.33,19.49 -40.72,11.38 -14.37,-8.1 -19.51,-26.32 -11.38,-40.72 98.21,-174.42 67.8,-395.19 -73.92,-536.93 -174.85,-174.84 -459.32,-174.84 -634.17,0 -174.85,174.85 -174.86,459.34 0,634.2 174.85,174.84 459.32,174.84 634.17,0 11.68,-11.68 30.61,-11.68 42.29,0 11.68,11.66 11.68,30.59 0,42.28 -198.17,198.16 -520.58,198.16 -718.75,0 -198.16,-198.16 -198.16,-520.59 0,-718.75 198.16,-198.16 520.58,-198.16 718.75,0 97.59,97.61 148.61,228.35 148.61,360.26zm-285.18 -152.28l-128 -128 -331.86 331.87 0 128 128 0 331.86 -331.87zm-412.45 284.46l0 -61.63 284.45 -284.46 61.63 61.63 -284.45 284.46 -61.63 0 0 0zm-47.41 142.23l474.09 0 0 -47.42 -474.09 0 0 47.42z"/>
 </g>
</svg>
