<svg width="20" height="20" viewBox="0 0 20 20" version="1.1" xmlns="http://www.w3.org/2000/svg" xmlns:xlink="http://www.w3.org/1999/xlink">
<g id="Canvas" fill="none">
<path id="&#208;&#146;&#209;&#139;&#209;&#133;&#208;&#190;&#208;&#180;" d="M 3.39415 20L 3.39415 14.6983L 5.65864 14.6983L 5.65864 17.8789L 17.7345 17.8789L 17.7415 7.86728C 17.8005 6.3737 17.2551 4.91435 16.2146 3.78124C 15.6039 3.21002 14.8717 2.76561 14.0656 2.47693C 13.2594 2.18825 12.3973 2.06176 11.5356 2.10568C 6.95514 2.10568 5.32502 5.11025 5.32502 7.92339L 3.08419 7.92339C 3.02663 5.87925 3.79452 3.89003 5.23456 2.35322C 6.04946 1.57011 7.03129 0.956535 8.1161 0.552408C 9.20092 0.148282 10.3645 -0.0373335 11.531 0.00764519C 12.7029 -0.0410847 13.8726 0.143562 14.9628 0.549397C 16.0529 0.955233 17.0389 1.57303 17.8555 2.36202C 19.2811 3.88065 20.0412 5.84792 19.9835 7.86949L 20 20L 3.39415 20ZM 10.2249 15.1647L 8.63237 13.6729L 8.63237 13.6663L 10.0887 12.3021C 10.0957 12.3021 10.0887 12.2955 10.0887 12.2955L 6.19348e-05 12.2955L 0.0364773 10.1743L 10.0887 10.1743L 10.0887 10.1677L 8.63237 8.80353L 8.63237 8.79693L 10.2249 7.3051L 10.2319 7.3051L 14.4048 11.2151C 14.4118 11.2151 14.4118 11.2217 14.4048 11.2151L 10.2319 15.1669L 10.2249 15.1647Z" fill="#2F80ED"/>
</g>
</svg>
