<svg width="20" height="16" viewBox="0 0 20 16" version="1.1" xmlns="http://www.w3.org/2000/svg" xmlns:xlink="http://www.w3.org/1999/xlink">
<g id="Canvas" fill="none">
<g id="Group">
<path id="Vector" d="M 19.6831 8.23878e-08L 0.316877 8.23878e-08C 0.141897 8.23878e-08 0 0.143855 0 0.321391L 0 15.6786C 0 15.8561 0.141897 16 0.316877 16L 19.6831 16C 19.8582 16 20 15.8561 20 15.6786L 20 0.321391C 20 0.143855 19.8582 8.23878e-08 19.6831 8.23878e-08ZM 18.0987 13.4377L 13.7407 8.86017C 13.6925 8.80971 13.6137 8.80643 13.5618 8.85284L 10.5391 11.5512L 6.67558 6.72639C 6.65049 6.6949 6.61379 6.6769 6.57228 6.6778C 6.53229 6.67863 6.49496 6.69811 6.47107 6.73063L 1.90126 12.9499L 1.90126 1.92835L 18.0987 1.92835L 18.0987 13.4377Z" fill="#BDBDBD"/>
<path id="Vector_2" d="M 1.55447 3.15374C 2.41245 3.15374 3.10901 2.44784 3.10901 1.57694C 3.10901 0.706289 2.41245 -1.72622e-07 1.55447 -1.72622e-07C 0.695799 -1.72622e-07 3.7134e-07 0.706289 3.7134e-07 1.57694C 3.7134e-07 2.44778 0.695862 3.15374 1.55447 3.15374Z" transform="translate(11.7583 3.41699)" fill="#BDBDBD"/>
</g>
</g>
</svg>
