<svg width="61" height="74" viewBox="0 0 61 74" fill="none" xmlns="http://www.w3.org/2000/svg">
<path d="M9.1924 2.18773e-06L2.21315e-08 11.7779L10.6086 10.4564L13.2608 19.7064L22.5434 7.8135L22.5859 7.7593C20.748 5.9106 18.7349 4.24431 16.5761 2.7802C14.2102 1.61875 11.7371 0.688405 9.1924 2.18773e-06Z" transform="translate(0 54.2937)" fill="#EF2648"/>
<path d="M13.3921 2.18773e-06C10.8473 0.687104 8.37408 1.61615 6.00846 2.775C3.84953 4.2378 1.83796 5.9054 7.43618e-07 7.7541L9.32366 19.7064L11.9759 10.4564L22.5846 11.7779L13.3921 2.18773e-06Z" transform="translate(38.415 54.2937)" fill="#EF2648"/>
<path d="M57.5272 33.0357C57.5272 27.4988 60.9896 20.9842 58.3931 16.5178C55.7158 11.9048 48.2314 11.6696 43.6033 9.00155C39.1171 6.41025 35.2357 0 29.6793 0C24.123 0 20.2415 6.41155 15.7554 8.99765C11.126 11.667 3.64289 11.9047 0.965578 16.514C-1.63094 20.9843 1.83147 27.4989 1.83147 33.0357C1.83147 38.5724 -1.63094 45.0871 0.965578 49.5536C3.64289 54.1667 11.1274 54.4019 15.7554 57.0699C20.2415 59.6612 24.123 66.0714 29.6793 66.0714C35.2357 66.0714 39.1171 59.6599 43.6033 57.0738C48.2327 54.4045 55.7158 54.1667 58.3931 49.5575C60.9896 45.0871 57.5272 38.5725 57.5272 33.0357Z" transform="translate(0.820312)" fill="#FFA511"/>
<path d="M22.5436 44.9287C34.994 44.9287 45.0871 34.8711 45.0871 22.4643C45.0871 10.0576 34.994 0 22.5436 0C10.0931 0 0 10.0576 0 22.4643C0 34.8711 10.0931 44.9287 22.5436 44.9287Z" transform="translate(7.95605 10.5713)" fill="#FFDC13"/>
<path d="M56.9873 0.2775C56.9303 0.178352 56.8547 0.0938004 56.7977 -3.88145e-07C54.8458 3.7026 52.5316 7.20315 49.8888 10.4525C53.4083 22.3454 46.5855 34.8302 34.6507 38.3373C26.8082 40.6406 18.3279 38.5303 12.4931 32.8217C8.51622 33.5856 4.47553 33.9713 0.425695 33.9741C0.28254 33.9741 0.1433 33.9648 -1.99183e-07 33.9635C2.97972 37.9516 9.9456 38.2964 14.3496 40.835C18.8357 43.4196 22.7172 49.8313 28.2735 49.8313C33.8299 49.8313 37.7114 43.4198 42.1975 40.8337C46.8269 38.1643 54.31 37.9266 56.9873 33.3173C59.5838 28.847 56.1214 22.3322 56.1214 16.7955C56.1214 11.2588 59.5838 4.74395 56.9873 0.2775Z" transform="translate(2.22656 16.2405)" fill="#F08015"/>
<path d="M11.3128 7.81625C14.7499 7.81885 18.1448 8.5866 21.2465 10.0627L13.3921 3.88145e-07C10.8473 0.687102 8.37408 1.61615 6.00846 2.775C3.84953 4.2378 1.83796 5.9054 7.43618e-07 7.7541L1.68276 9.91195C4.70353 8.5298 7.98828 7.81495 11.3128 7.81625Z" transform="translate(38.416 54.2908)" fill="#B20D24"/>
<path d="M7.79334 2.775C5.42758 1.61615 2.95448 0.687101 0.409741 -6.70433e-07L-3.27546e-07 0.528552C4.47553 3.74885 7.12774 8.9144 7.13036 14.4154C7.12774 15.1053 7.08264 15.7924 6.99779 16.4769L13.7609 7.8083L13.8034 7.7541C11.9651 5.90555 9.95227 4.2391 7.79334 2.775Z" transform="translate(8.7832 54.2988)" fill="#B20D24"/>
<path d="M10.5645 30.2637C8.19727 30.2637 6.18164 29.8594 4.51758 29.0508C3.63867 28.6289 2.91211 28.0664 2.33789 27.3633C1.77539 26.6602 1.49414 26.0215 1.49414 25.4473V25.0957C1.49414 24.416 1.73438 23.8359 2.21484 23.3555C2.69531 22.875 3.27539 22.6348 3.95508 22.6348C5.02148 22.6348 5.76562 23.127 6.1875 24.1113C6.23438 24.2168 6.28125 24.3398 6.32812 24.4805C6.66797 25.8164 6.91406 26.5957 7.06641 26.8184C7.67578 27.6504 8.54883 28.0664 9.68555 28.0664C11.1738 28.0664 12.2695 27.6035 12.9727 26.6777C13.6758 25.7402 14.0273 24.498 14.0273 22.9512C14.0273 21.4512 13.6582 20.25 12.9199 19.3477C12.1699 18.4219 10.998 17.9355 9.4043 17.8887L7.69922 17.8359C7.13672 17.8008 6.7207 17.707 6.45117 17.5547C6.16992 17.4023 6.0293 17.0801 6.0293 16.5879C6.0293 16.1191 6.19336 15.8262 6.52148 15.709C6.84961 15.5918 7.33594 15.5215 7.98047 15.498C9.03516 15.416 9.86133 15.2812 10.459 15.0938C11.0684 14.9297 11.6133 14.543 12.0938 13.9336C12.4219 13.5586 12.6738 13.0547 12.8496 12.4219C13.0137 11.7891 13.0957 11.168 13.0957 10.5586C13.0957 9.49219 12.8496 8.60156 12.3574 7.88672C11.8652 7.17187 11.0977 6.81445 10.0547 6.81445C9.36328 6.81445 8.77148 6.98438 8.2793 7.32422C7.78711 7.6875 7.54102 8.19141 7.54102 8.83594C7.54102 8.89453 7.55273 9.07617 7.57617 9.38086L7.61133 9.85547V9.99609C7.61133 10.5703 7.40039 11.0801 6.97852 11.5254C6.49805 12.0527 5.88281 12.3164 5.13281 12.3164C4.46484 12.3164 3.88477 12.0762 3.39258 11.5957C2.91211 11.1152 2.67188 10.5352 2.67188 9.85547C2.67188 9.69141 2.69531 9.51563 2.74219 9.32812L2.83008 9.01172L2.8125 8.99414C3.09375 7.89258 3.7793 6.96094 4.86914 6.19922C6.41602 5.07422 8.49023 4.51172 11.0918 4.51172C12.416 4.51172 13.7168 4.74023 14.9941 5.19727C16.248 5.6543 17.2793 6.35156 18.0879 7.28906C18.9082 8.23828 19.3184 9.39258 19.3184 10.752C19.3184 12.2051 18.8379 13.3945 17.877 14.3203C17.1973 15 16.377 15.5215 15.416 15.8848L14.4316 16.2891L15.4336 16.6055C16.6406 16.9922 17.7012 17.6133 18.6152 18.4688C19.8223 19.6172 20.4258 21.0234 20.4258 22.6875C20.4258 23.8359 20.1445 24.9082 19.582 25.9043C19.0312 26.8887 18.2637 27.7266 17.2793 28.418C15.498 29.6484 13.2598 30.2637 10.5645 30.2637Z" transform="translate(20 16)" fill="#EB5757"/>
</svg>
