<svg width="61" height="74" viewBox="0 0 61 74" fill="none" xmlns="http://www.w3.org/2000/svg">
<path d="M9.1924 2.18773e-06L2.21315e-08 11.7779L10.6086 10.4564L13.2608 19.7064L22.5434 7.8135L22.5859 7.7593C20.748 5.9106 18.7349 4.24431 16.5761 2.7802C14.2102 1.61875 11.7371 0.688405 9.1924 2.18773e-06Z" transform="translate(0 54.2937)" fill="#EF2648"/>
<path d="M13.3921 2.18773e-06C10.8473 0.687104 8.37408 1.61615 6.00846 2.775C3.84953 4.2378 1.83796 5.9054 7.43618e-07 7.7541L9.32366 19.7064L11.9759 10.4564L22.5846 11.7779L13.3921 2.18773e-06Z" transform="translate(38.415 54.2937)" fill="#EF2648"/>
<path d="M57.5272 33.0357C57.5272 27.4988 60.9896 20.9842 58.3931 16.5178C55.7158 11.9048 48.2314 11.6696 43.6033 9.00155C39.1171 6.41025 35.2357 0 29.6793 0C24.123 0 20.2415 6.41155 15.7554 8.99765C11.126 11.667 3.64289 11.9047 0.965578 16.514C-1.63094 20.9843 1.83147 27.4989 1.83147 33.0357C1.83147 38.5724 -1.63094 45.0871 0.965578 49.5536C3.64289 54.1667 11.1274 54.4019 15.7554 57.0699C20.2415 59.6612 24.123 66.0714 29.6793 66.0714C35.2357 66.0714 39.1171 59.6599 43.6033 57.0738C48.2327 54.4045 55.7158 54.1667 58.3931 49.5575C60.9896 45.0871 57.5272 38.5725 57.5272 33.0357Z" transform="translate(0.820312)" fill="#FFA511"/>
<path d="M22.5436 44.9287C34.994 44.9287 45.0871 34.8711 45.0871 22.4643C45.0871 10.0576 34.994 0 22.5436 0C10.0931 0 0 10.0576 0 22.4643C0 34.8711 10.0931 44.9287 22.5436 44.9287Z" transform="translate(7.95605 10.5713)" fill="#FFDC13"/>
<path d="M56.9873 0.2775C56.9303 0.178352 56.8547 0.0938004 56.7977 -3.88145e-07C54.8458 3.7026 52.5316 7.20315 49.8888 10.4525C53.4083 22.3454 46.5855 34.8302 34.6507 38.3373C26.8082 40.6406 18.3279 38.5303 12.4931 32.8217C8.51622 33.5856 4.47553 33.9713 0.425695 33.9741C0.28254 33.9741 0.1433 33.9648 -1.99183e-07 33.9635C2.97972 37.9516 9.9456 38.2964 14.3496 40.835C18.8357 43.4196 22.7172 49.8313 28.2735 49.8313C33.8299 49.8313 37.7114 43.4198 42.1975 40.8337C46.8269 38.1643 54.31 37.9266 56.9873 33.3173C59.5838 28.847 56.1214 22.3322 56.1214 16.7955C56.1214 11.2588 59.5838 4.74395 56.9873 0.2775Z" transform="translate(2.22656 16.2405)" fill="#F08015"/>
<path d="M11.3128 7.81625C14.7499 7.81885 18.1448 8.5866 21.2465 10.0627L13.3921 3.88145e-07C10.8473 0.687102 8.37408 1.61615 6.00846 2.775C3.84953 4.2378 1.83796 5.9054 7.43618e-07 7.7541L1.68276 9.91195C4.70353 8.5298 7.98828 7.81495 11.3128 7.81625Z" transform="translate(38.416 54.2908)" fill="#B20D24"/>
<path d="M7.79334 2.775C5.42758 1.61615 2.95448 0.687101 0.409741 -6.70433e-07L-3.27546e-07 0.528552C4.47553 3.74885 7.12774 8.9144 7.13036 14.4154C7.12774 15.1053 7.08264 15.7924 6.99779 16.4769L13.7609 7.8083L13.8034 7.7541C11.9651 5.90555 9.95227 4.2391 7.79334 2.775Z" transform="translate(8.7832 54.2988)" fill="#B20D24"/>
<path d="M10.8457 4.51172C11.6895 4.51172 12.4102 4.81055 13.0078 5.4082C13.6055 6.00586 13.9043 6.73242 13.9043 7.58789V27.1875C13.9043 28.043 13.6055 28.7695 13.0078 29.3672C12.4102 29.9648 11.6895 30.2637 10.8457 30.2637C10.1543 30.2637 9.5332 30.0527 8.98242 29.6309C8.45508 29.2207 8.09766 28.6875 7.91016 28.0312C7.80469 27.7031 7.75195 27.375 7.75195 27.0469V9.75C6.39258 10.9805 5.11523 12.3867 3.91992 13.9688C3.62695 14.3086 3.26367 14.4785 2.83008 14.4785C2.43164 14.4785 2.0918 14.3379 1.81055 14.0566C1.5293 13.7754 1.38867 13.4355 1.38867 13.0371C1.38867 12.6621 1.51172 12.3398 1.75781 12.0703C3.75 9.30469 5.85352 7.14258 8.06836 5.58398C8.72461 5.11523 9.33984 4.80469 9.91406 4.65234L10.0723 4.61719C10.3418 4.54688 10.5996 4.51172 10.8457 4.51172Z" transform="translate(20 16)" fill="#EB5757"/>
</svg>
