<svg width="14" height="12" viewBox="0 0 14 12" version="1.1" xmlns="http://www.w3.org/2000/svg" xmlns:xlink="http://www.w3.org/1999/xlink">
<g id="Canvas" fill="none">
<path id="Vector" d="M 14 3.74089C 14 1.67482 12.3073 -9.43807e-09 10.2193 -9.43807e-09C 8.85586 -9.43807e-09 7.66515 0.716487 6.99996 1.78725C 6.33485 0.716487 5.14363 -9.43807e-09 3.78022 -9.43807e-09C 1.69221 -9.43807e-09 0 1.67482 0 3.74089C 0 4.86575 0.503748 5.8721 1.29768 6.55741L 6.65496 11.8586C 6.74645 11.9491 6.87053 12 6.99996 12C 7.12938 12 7.25347 11.9491 7.34496 11.8586L 12.7022 6.55741C 13.4962 5.8721 14 4.86575 14 3.74089Z" fill="#EB5757"/>
</g>
</svg>
