<svg width="53" height="42" viewBox="0 0 53 42" version="1.1" xmlns="http://www.w3.org/2000/svg" xmlns:xlink="http://www.w3.org/1999/xlink">
<g id="Canvas" fill="none">
<g id="&#208;&#148;&#208;&#190;&#208;&#178;&#208;&#181;&#209;&#128;&#209;&#143;&#209;&#130;&#209;&#140;" opacity="0.5">
<path id="Vector" d="M 21.7211 10.9041C 20.9713 11.0212 19.9239 10.5878 18.698 9.66257C 17.5554 8.79587 16.2938 7.53095 14.9251 5.89124C 12.5566 3.03346 10.7237 0.0351359 10.6999 -7.14857e-07L 8.67653 1.19465C 8.75985 1.32348 10.6047 4.35694 13.0803 7.34356C 15.6392 10.4239 17.8649 12.2861 19.8287 12.9654C 19.1741 14.2772 18.4004 14.9682 17.5197 15.0385C 15.9605 15.1556 13.6873 13.5159 11.1283 10.4122C 9.03359 7.85889 7.47444 5.21193 7.46254 5.18851L 6.43897 5.76241L 5.41539 6.33631C 5.4868 6.45343 7.05787 9.14724 9.27163 11.841C 10.5928 13.4573 11.8782 14.734 13.0803 15.6358C 13.6873 16.0926 14.2824 16.4557 14.8537 16.7367C 14.211 17.4043 13.5206 17.7323 12.747 17.7323C 11.2236 17.7323 9.29544 16.5376 7.16499 14.2772C 5.45111 12.4618 4.249 10.6113 4.22519 10.5761L 2.23757 11.8176C 2.28518 11.8996 3.55868 13.8438 5.41539 15.8232C 6.26043 16.725 7.09357 17.4746 7.90291 18.0954C 7.284 18.763 6.65321 19.0792 5.96289 19.0558C 4.27281 19.0089 2.47561 17.0178 1.92812 16.2565L -5.81151e-06 17.5917C 0.0237981 17.6269 0.654606 18.5053 1.65437 19.3954C 3.07071 20.6721 4.49894 21.3279 5.89147 21.3748C 5.93908 21.3748 5.97479 21.3748 6.0224 21.3748C 7.06978 21.3748 8.54561 21 9.92624 19.3486C 10.9022 19.8171 11.8425 20.0513 12.747 20.0513L 12.7589 20.0513C 13.6873 20.0513 14.5561 19.8053 15.3535 19.3251C 16.1034 18.8801 16.7818 18.2125 17.3769 17.3575C 17.484 17.3575 17.603 17.3575 17.7101 17.3458C 19.6978 17.1935 21.245 15.7881 22.34 13.1528C 24.2681 12.7312 25.613 10.9041 26.351 7.73006L 24.0539 7.21472C 23.3874 10.0725 22.4233 10.7987 21.7211 10.9041Z" transform="translate(18.2227 20.6252)" fill="#333333"/>
<path id="Vector_2" d="M 15.8996 15.1673C 16.1257 14.7691 16.2566 14.3006 16.2566 13.8087C 16.2566 12.251 14.9712 10.9978 13.4001 10.9978C 13.3049 10.9978 13.2097 10.9978 13.1145 11.0095C 13.6025 10.4707 13.8881 9.74456 13.8286 8.94813C 13.7334 7.56609 12.6146 6.45343 11.2221 6.3363C 11.1388 6.32459 11.0555 6.32459 10.9721 6.32459C 10.7698 6.32459 10.5675 6.34802 10.377 6.38315C 10.7698 5.87953 10.9959 5.23536 10.9602 4.54434C 10.9007 3.08031 9.68672 1.89738 8.19897 1.85053C 8.16327 1.85053 8.13947 1.85053 8.10377 1.85053C 7.31824 1.85053 6.60412 2.16676 6.08043 2.67038C 6.09233 2.5884 6.09233 2.51813 6.09233 2.43614C 6.09233 1.08924 4.98544 3.57428e-07 3.61671 3.57428e-07C 2.89069 3.57428e-07 1.79571 0.831566 1.30773 1.27663C -0.346646 2.76408 -0.40615 5.32906 0.98638 7.06246L 8.03234 15.8466C 9.02021 17.0881 10.1747 17.4746 11.2221 17.4746C 12.9955 17.4746 14.4951 16.3854 14.4951 16.3854C 15.1021 16.1511 15.5901 15.7178 15.8996 15.1673Z" transform="translate(2.92969 20.0278)" fill="#333333"/>
<path id="Vector_3" d="M 30.5425 1.46403L 26.0078 2.77579C 25.1985 3.01004 24.3535 3.12716 23.5203 3.12716C 22.5444 3.12716 21.5684 2.96319 20.64 2.64696L 13.6417 0.26938C 13.118 0.0936973 12.5586 1.78714e-07 12.0111 1.78714e-07C 11.3922 1.78714e-07 10.7733 0.117122 10.1782 0.339654L 0.739942 3.99386C 0.12104 4.23982 -0.176515 4.94255 0.109132 5.53987C 1.25172 7.98773 3.59642 8.71388 5.96491 8.71388C 9.40458 8.71388 12.9038 7.17958 12.9038 7.17958C 12.9038 7.17958 20.2949 18.8684 27.6146 20.2621C 28.5548 20.4378 29.4237 20.5198 30.233 20.5198C 35.7198 20.5198 38.2312 16.9359 38.2312 16.9359L 30.5425 1.46403Z" transform="translate(14.7686 5.34082)" fill="#333333"/>
<path id="Vector_4" d="M 2.35681 13.7033C 2.3449 12.0519 2.76148 10.3536 3.59461 8.65532C 4.58248 6.62911 6.17734 4.6029 8.31969 2.62353L 18.7339 5.97323L 22.0189 4.59119L 7.74839 -8.93571e-08L 7.23661 0.445064C 4.60628 2.77579 2.66626 5.20022 1.46416 7.64807C 0.476294 9.66257 -0.0116923 11.7005 0.000209629 13.715C 0.0240136 17.1935 1.57128 19.3837 1.63079 19.4657L 3.5589 18.1188C 3.547 18.1188 2.38061 16.4205 2.35681 13.7033Z" fill="#333333"/>
</g>
</g>
</svg>
