<svg width="20" height="20" viewBox="0 0 20 20" fill="none" xmlns="http://www.w3.org/2000/svg">
<path d="M18.6592 4.98041C17.7649 3.44838 16.5519 2.23538 15.0198 1.34116C13.4874 0.446993 11.8146 0 10.0003 0C8.18604 0 6.51277 0.446993 4.98071 1.34116C3.44855 2.23524 2.23555 3.44825 1.34129 4.98041C0.446991 6.51267 0 8.18594 0 10.0001C0 11.8143 0.447128 13.4873 1.34116 15.0197C2.23537 16.5517 3.44837 17.7647 4.98053 18.659C6.51277 19.5531 8.1859 20 10.0001 20C11.8144 20 13.4877 19.553 15.0198 18.659C16.5519 17.7648 17.7649 16.5517 18.659 15.0197C19.5531 13.4873 20 11.8142 20 10.0001C20 8.18576 19.5531 6.51244 18.6592 4.98041ZM17.6695 13.2357C17.2267 14.2644 16.6345 15.15 15.8923 15.8921C15.1502 16.6341 14.2646 17.2266 13.2359 17.6692C12.2073 18.1121 11.1288 18.3334 10.0003 18.3334C8.87183 18.3334 7.79336 18.1118 6.76461 17.6692C5.736 17.2266 4.85046 16.6341 4.10825 15.8921C3.36628 15.1498 2.77385 14.2645 2.33096 13.2357C1.88825 12.2072 1.66683 11.1284 1.66683 10.0001C1.66683 8.87159 1.88821 7.79313 2.33096 6.76437C2.77366 5.73575 3.36609 4.85034 4.10825 4.108C4.85046 3.36602 5.736 2.77354 6.76461 2.3307C7.79323 1.88813 8.87187 1.66675 10.0003 1.66675C11.1286 1.66675 12.2075 1.88799 13.2359 2.3307C14.2646 2.7734 15.15 3.36588 15.8923 4.108C16.6344 4.8502 17.2267 5.73562 17.6695 6.76437C18.1123 7.79299 18.3338 8.87146 18.3338 10.0001C18.3339 11.1286 18.1123 12.2073 17.6695 13.2357Z" fill="#2F80ED"/>
<path d="M9.03888 0.0417661C8.82193 -0.0281037 8.60936 -0.0100434 8.40084 0.0939403C8.19233 0.197924 8.05346 0.362975 7.98445 0.58873C7.76764 1.28328 7.36594 1.84543 6.77989 2.27495C6.19412 2.70462 5.53642 2.91956 4.80717 2.91956C4.0781 2.91956 3.42064 2.70448 2.83459 2.27495C2.24868 1.84529 1.84721 1.28328 1.63016 0.58873C1.5608 0.363021 1.42398 0.197924 1.22007 0.0939403C1.01607 -0.00999785 0.805641 -0.0281037 0.588598 0.0417661C0.362891 0.111089 0.198023 0.247817 0.0937657 0.451635C-0.0104 0.655452 -0.027822 0.866476 0.0417282 1.08311C0.362754 2.1338 0.961752 2.98004 1.8385 3.62246C2.71533 4.26488 3.7049 4.58572 4.80731 4.58572C5.90958 4.58572 6.89943 4.26488 7.77621 3.62246C8.65241 2.97972 9.25145 2.1338 9.57262 1.08311C9.64253 0.866476 9.62506 0.655452 9.52081 0.451635C9.41623 0.247817 9.25551 0.111453 9.03888 0.0417661Z" transform="translate(5.19336 11.2476)" fill="#2F80ED"/>
<path d="M1.66679 3.3335C2.12673 3.3335 2.51959 3.17041 2.84513 2.8451C3.17072 2.51969 3.33349 2.12683 3.33349 1.66675C3.33349 1.20662 3.17072 0.813947 2.84513 0.488405C2.51954 0.162862 2.12673 9.74269e-08 1.66679 9.74269e-08C1.20671 9.74269e-08 0.813852 0.162862 0.488311 0.488405C0.162907 0.813992 1.22479e-07 1.20667 1.22479e-07 1.66675C1.22479e-07 2.12683 0.162725 2.51969 0.488311 2.8451C0.813989 3.17055 1.20666 3.3335 1.66679 3.3335Z" transform="translate(5 5)" fill="#2F80ED"/>
<path d="M1.66706 1.47532e-07C1.20694 1.47532e-07 0.813943 0.162862 0.488357 0.488405C0.16309 0.813992 -1.11345e-08 1.20667 -1.11345e-08 1.66675C-1.11345e-08 2.12683 0.16309 2.51969 0.488357 2.8451C0.813943 3.17059 1.20694 3.3335 1.66706 3.3335C2.12682 3.3335 2.51982 3.17041 2.8454 2.8451C3.17099 2.51969 3.33376 2.12683 3.33376 1.66675C3.33376 1.20662 3.17099 0.813947 2.8454 0.488405C2.51982 0.162862 2.12682 1.47532e-07 1.66706 1.47532e-07Z" transform="translate(11.6665 5)" fill="#2F80ED"/>
</svg>
