<svg width="45" height="42" viewBox="0 0 45 42" version="1.1" xmlns="http://www.w3.org/2000/svg" xmlns:xlink="http://www.w3.org/1999/xlink">
<g id="Canvas" fill="none">
<g id="&#208;&#148;&#209;&#128;&#209;&#131;&#208;&#182;&#208;&#184;&#209;&#130;&#209;&#140;" opacity="0.5">
<path id="Vector" d="M 38.3167 18.7601L 36.9942 18.7601C 37.8208 17.6431 38.3167 16.2499 38.3167 14.7366L 38.3167 12.0583C 38.3167 8.35916 35.3647 5.35659 31.7279 5.35659L 23.8166 5.35659C 23.0845 5.35659 22.4941 5.95711 22.4941 6.70174C 22.4941 8.88762 23.5332 10.8333 25.1273 12.0583L 25.1273 13.4035L 18.5385 13.4035C 19.365 12.2865 19.8609 10.8933 19.8609 9.38004L 19.8609 6.70174C 21.455 5.47669 22.4941 3.53103 22.4941 1.34515C 22.4941 0.600515 21.9037 -9.16313e-08 21.1716 -9.16313e-08L 13.2603 -9.16313e-08C 9.62346 -9.16313e-08 6.67147 3.00257 6.67147 6.70174L 6.67147 9.38004C 6.67147 10.8933 7.1674 12.2745 7.99395 13.4035L 6.67147 13.4035C 3.03463 13.4035 -5.76559e-06 16.3941 -5.76559e-06 20.1052L -5.76559e-06 40.6548C -5.76559e-06 41.3995 0.590385 42 1.32248 42L 19.8609 42C 20.593 42 21.1834 41.3995 21.1834 40.6548L 21.1834 26.807L 23.8166 26.807L 23.8166 40.6548C 23.8166 41.3995 24.407 42 25.1391 42L 43.6775 42C 44.4096 42 45 41.3995 45 40.6548L 45 25.4618C 44.9882 21.7627 41.9654 18.7601 38.3167 18.7601ZM 35.6835 13.4035L 35.6835 14.7366C 35.6835 16.9585 33.9123 18.7601 31.7279 18.7601C 29.5434 18.7601 27.7722 16.9585 27.7722 14.7366L 27.7722 13.2594C 28.1973 13.3434 28.6342 13.3915 29.0947 13.3915L 35.6835 13.3915L 35.6835 13.4035ZM 9.32825 8.0469L 15.9171 8.0469C 16.3658 8.0469 16.8145 7.99886 17.2396 7.91478L 17.2396 9.39205C 17.2396 11.614 15.4684 13.4155 13.2839 13.4155C 11.0994 13.4155 9.32825 11.614 9.32825 9.39205L 9.32825 8.0469ZM 19.8727 18.7601C 19.1406 18.7601 18.5502 19.3606 18.5502 20.1052L 18.5502 25.4618L 18.5502 39.3097L 8.00577 39.3097L 8.00577 22.7835C 8.00577 22.0389 7.41538 21.4384 6.68329 21.4384C 5.9512 21.4384 5.36081 22.0389 5.36081 22.7835L 5.36081 39.3097L 2.63317 39.3097L 2.63317 20.1052C 2.63317 17.9314 4.48701 16.0818 6.67147 16.0818L 25.2453 16.0818C 25.4461 17.0666 25.8594 17.9794 26.438 18.7601L 19.8727 18.7601ZM 42.355 39.3097L 39.6274 39.3097L 39.6274 28.1401C 39.6274 27.3955 39.037 26.795 38.3049 26.795C 37.5728 26.795 36.9824 27.3955 36.9824 28.1401L 36.9824 39.3097L 26.438 39.3097L 26.438 25.4618C 26.438 24.7172 25.8475 24.1167 25.1154 24.1167L 21.1598 24.1167L 21.1598 21.4384L 38.2931 21.4384C 40.4776 21.4384 42.3314 23.2759 42.3314 25.4618L 42.3314 39.3097L 42.355 39.3097Z" fill="#333333"/>
</g>
</g>
</svg>
