<svg width="40" height="45" viewBox="0 0 40 45" version="1.1" xmlns="http://www.w3.org/2000/svg" xmlns:xlink="http://www.w3.org/1999/xlink">
<g id="Canvas" fill="none">
<g id="&#208;&#145;&#209;&#139;&#209;&#130;&#209;&#140; &#208;&#190;&#209;&#130;&#208;&#186;&#209;&#128;&#209;&#139;&#209;&#130;&#209;&#139;&#208;&#188;">
<path id="Vector" d="M 2.19414 2.89486C 2.38943 2.69879 2.65365 2.58346 2.94084 2.58346C 3.22803 2.58346 3.49225 2.69879 3.68754 2.89486C 3.92878 3.13706 4.25043 3.27546 4.59506 3.27546C 4.93969 3.27546 5.26134 3.13706 5.50258 2.89486C 5.74382 2.65266 5.88168 2.32973 5.88168 1.98373C 5.88168 1.63773 5.74382 1.3148 5.50258 1.0726C 4.81332 0.3806 3.9058 3.51969e-07 2.94084 3.51969e-07C 1.97588 3.51969e-07 1.05686 0.3806 0.379092 1.0726C 0.137851 1.3148 -7.0115e-07 1.63773 -7.0115e-07 1.98373C -7.0115e-07 2.32973 0.137851 2.65266 0.379092 2.89486C 0.620333 3.13706 0.941988 3.27546 1.28662 3.27546C 1.63125 3.27546 1.9529 3.14859 2.19414 2.89486Z" transform="translate(8.48926 23.8594)" fill="white"/>
<path id="Vector_2" d="M 2.94084 3.51969e-07C 1.97587 3.51969e-07 1.05686 0.380599 0.379092 1.06106C 0.137852 1.30326 1.4023e-06 1.6262 1.4023e-06 1.9722C 1.4023e-06 2.3182 0.137852 2.64113 0.379092 2.88333C 0.620333 3.12553 0.941987 3.26393 1.28662 3.26393C 1.63125 3.26393 1.9529 3.12553 2.19414 2.88333C 2.60769 2.46813 3.27398 2.46813 3.68753 2.88333C 3.92877 3.12553 4.25043 3.26393 4.59506 3.26393C 4.93969 3.26393 5.26134 3.12553 5.50258 2.88333C 5.74383 2.64113 5.88168 2.3182 5.88168 1.9722C 5.88168 1.6262 5.74383 1.30326 5.50258 1.06106C 4.82481 0.380599 3.91729 3.51969e-07 2.94084 3.51969e-07Z" transform="translate(25.6396 23.8594)" fill="white"/>
<path id="Vector_3" d="M 18.6789 0.380601C 14.1298 4.94779 6.73176 4.94779 2.19414 0.380601C 1.68868 -0.126865 0.873062 -0.126865 0.379093 0.380601C 0.137853 0.6228 3.50575e-07 0.945732 3.50575e-07 1.29173C 3.50575e-07 1.63773 0.137853 1.96066 0.379093 2.20286C 3.0672 4.90166 6.63986 6.37792 10.4423 6.37792C 14.2447 6.37792 17.8288 4.89012 20.5055 2.20286C 20.7467 1.96066 20.8845 1.63773 20.8845 1.29173C 20.8845 0.945732 20.7467 0.6228 20.5055 0.380601C 20 -0.126865 19.1844 -0.126865 18.6789 0.380601Z" transform="translate(9.5686 32.7517)" fill="white"/>
<path id="Vector_4" d="M 36.2435 21.9795L 36.2435 8.4394C 36.2435 6.47873 35.2671 4.668 33.6473 3.58387C 32.1654 2.59201 30.3504 2.33827 28.6617 2.89187L 23.6071 1.16188C 19.529 -0.233655 15.2211 -0.372055 11.1775 0.746676C 5.8587 2.23447 2.76852 5.36 2.24009 9.81186C 1.83802 10.3655 1.51637 10.9767 1.2981 11.6341L 0.896037 12.8336C 0.608846 13.6871 0.9305 14.5751 1.6772 15.048C 2.34348 15.4747 3.14762 15.4401 3.76795 15.0019L 3.76795 21.968C 1.56232 22.5446 0 24.5514 0 26.8696C 0 29.3147 1.73464 31.3907 4.0896 31.852C 4.72143 34.9891 6.23779 37.8609 8.50086 40.156C 11.5681 43.2815 15.6577 45 20 45C 24.3308 45 28.409 43.3046 31.4762 40.2252C 33.7852 37.907 35.313 35.0122 35.9334 31.8405C 38.2768 31.3676 40 29.2916 40 26.8696C 40 24.563 38.4492 22.5562 36.2435 21.9795ZM 4.00919 11.8302C 4.45721 10.9883 5.16944 10.3193 6.05399 9.95026C 7.14532 9.47739 8.38598 9.50046 9.46582 10.0079C 12.1539 11.2651 15.4049 10.5846 17.3808 8.35866L 17.5876 8.128C 17.8173 7.87426 17.9322 7.5398 17.9092 7.1938C 17.8863 6.8478 17.7369 6.5364 17.4727 6.30573C 16.9443 5.83287 16.1287 5.879 15.6577 6.42107L 15.4509 6.65173C 14.2332 8.03573 12.2229 8.45093 10.5571 7.6782C 9.04078 6.96313 7.30615 6.85933 5.72085 7.34373C 6.83515 5.4638 8.89144 4.09134 11.8782 3.26094C 15.4279 2.28061 19.2073 2.40747 22.7915 3.63L 27.398 5.187L 27.4555 9.00453C 25.3303 11.8417 22.2631 13.7563 18.7823 14.4252C 15.1637 15.1172 11.4762 14.3906 8.38598 12.3607C 7.55887 11.8187 6.6054 11.5419 5.66341 11.5419C 5.112 11.5419 4.54911 11.6457 4.00919 11.8302ZM 33.6703 28.715C 33.6703 32.3826 32.2458 35.8195 29.6726 38.4145C 27.0879 41.0095 23.6646 42.4281 20.0115 42.4281C 16.3699 42.4281 12.9351 40.9749 10.3504 38.3453C 7.77714 35.7157 6.35267 32.2442 6.35267 28.5535L 6.35267 14.2291C 6.58242 14.2983 6.80069 14.3906 6.99598 14.529C 10.6376 16.9164 15.0029 17.7814 19.2763 16.9625C 22.3665 16.3743 25.1809 14.9557 27.467 12.8336L 27.467 13.9869C 27.467 17.6545 30.1091 20.7685 33.6703 21.3913L 33.6703 28.715ZM 33.6703 18.7502C 31.5681 18.1735 30.0402 16.2128 30.0402 13.9869L 29.9713 5.2216C 30.7524 5.10627 31.5336 5.27927 32.2114 5.72907C 33.1304 6.34033 33.6588 7.3322 33.6588 8.42786L 33.6588 18.7502L 33.6703 18.7502Z" fill="white"/>
</g>
</g>
</svg>
