<svg width="47" height="47" viewBox="0 0 47 47" version="1.1" xmlns="http://www.w3.org/2000/svg" xmlns:xlink="http://www.w3.org/1999/xlink">
<g id="Canvas" fill="none">
<g id="&#208;&#148;&#208;&#181;&#208;&#187;&#208;&#184;&#209;&#130;&#209;&#140;&#209;&#129;&#209;&#143;">
<path id="Vector" d="M 42.8944 19.3703C 42.0341 19.3703 41.2229 19.6407 40.5592 20.0954C 39.9324 19.0384 39.0228 18.1535 37.9289 17.539C 38.2608 16.3468 38.2731 15.0931 37.9535 13.9255C 38.7524 13.7657 39.4899 13.3847 40.0676 12.7947C 41.6776 11.1846 41.6776 8.55439 40.0676 6.9443C 38.4575 5.33421 35.8273 5.33421 34.2172 6.9443C 33.6149 7.54655 33.2339 8.284 33.0864 9.07061C 31.9188 8.76334 30.6652 8.76334 29.473 9.09519C 28.8585 8.00131 27.9613 7.09179 26.9166 6.46496C 27.3713 5.80126 27.6417 5.00235 27.6417 4.12971C 27.6417 1.84362 25.7858 -4.68857e-08 23.512 -4.68857e-08C 21.2383 -4.68857e-08 19.3823 1.85591 19.3823 4.12971C 19.3823 4.99006 19.6527 5.80126 20.1075 6.46496C 19.0505 7.09179 18.1656 8.00131 17.5511 9.09519C 16.3589 8.76334 15.1052 8.75105 13.9376 9.07061C 13.7901 8.29629 13.4091 7.54655 12.8068 6.9443C 11.1968 5.33421 8.56656 5.33421 6.95649 6.9443C 5.34641 8.55439 5.34641 11.1846 6.95649 12.7947C 7.54644 13.3847 8.2839 13.7657 9.0705 13.9255C 8.76324 15.0931 8.76326 16.3468 9.09511 17.539C 7.98895 18.1535 7.09168 19.0507 6.46486 20.0954C 5.80116 19.6407 5.00227 19.3703 4.12964 19.3703C 1.84357 19.3703 2.40052e-05 21.2262 2.40052e-05 23.5C 2.40052e-05 25.7738 1.85586 27.6297 4.12964 27.6297C 4.98998 27.6297 5.80116 27.3593 6.46486 26.9046C 7.09168 27.9616 8.00124 28.8465 9.09511 29.461C 8.76326 30.6532 8.75095 31.9069 9.0705 33.0745C 8.29619 33.222 7.54649 33.603 6.94424 34.2053C 5.33417 35.8154 5.33417 38.4456 6.94424 40.0557C 7.75543 40.8669 8.8124 41.2602 9.8694 41.2602C 10.9264 41.2602 11.9834 40.8546 12.7945 40.0557C 13.3968 39.4535 13.7778 38.716 13.9253 37.9294C 15.0929 38.2367 16.3466 38.2367 17.5388 37.9048C 18.1533 38.9987 19.0505 39.9082 20.0952 40.535C 19.6405 41.1987 19.37 41.9977 19.37 42.8703C 19.37 45.1564 21.2259 47 23.4997 47C 25.7735 47 27.6294 45.1441 27.6294 42.8703C 27.6294 42.0099 27.359 41.1987 26.9043 40.535C 27.9613 39.9082 28.8462 38.9987 29.4607 37.9048C 30.6529 38.2367 31.9065 38.249 33.0741 37.9294C 33.2216 38.7037 33.6026 39.4535 34.2049 40.0557C 35.0161 40.8669 36.073 41.2602 37.13 41.2602C 38.187 41.2602 39.2441 40.8546 40.0553 40.0557C 41.6653 38.4456 41.6653 35.8154 40.0553 34.2053C 39.453 33.603 38.7155 33.222 37.9289 33.0745C 38.2362 31.9069 38.2362 30.6532 37.9044 29.461C 39.0105 28.8465 39.9078 27.9493 40.5346 26.9046C 41.1983 27.3593 41.9972 27.6297 42.8698 27.6297C 45.1559 27.6297 46.9995 25.7738 46.9995 23.5C 47.0363 21.2262 45.1805 19.3703 42.8944 19.3703ZM 4.11739 24.8766C 3.35537 24.8766 2.74082 24.262 2.74082 23.5C 2.74082 22.738 3.35537 22.1234 4.11739 22.1234C 4.87941 22.1234 5.49391 22.738 5.49391 23.5C 5.49391 24.262 4.87941 24.8766 4.11739 24.8766ZM 36.1837 8.88624C 36.7245 8.34545 37.5971 8.34545 38.1379 8.88624C 38.6787 9.42704 38.6787 10.2997 38.1379 10.8405C 37.5971 11.3813 36.7245 11.3813 36.1837 10.8405C 35.6429 10.2874 35.6429 9.41475 36.1837 8.88624ZM 23.512 2.72856C 24.274 2.72856 24.8886 3.3431 24.8886 4.10513C 24.8886 4.86716 24.274 5.48169 23.512 5.48169C 22.75 5.48169 22.1354 4.86716 22.1354 4.10513C 22.1232 3.35539 22.75 2.72856 23.512 2.72856ZM 8.88614 10.8282C 8.34535 10.2874 8.34535 9.41475 8.88614 8.87395C 9.42693 8.33316 10.2996 8.33316 10.8403 8.87395C 11.3811 9.41475 11.3811 10.2874 10.8403 10.8282C 10.2996 11.369 9.42693 11.369 8.88614 10.8282ZM 10.8403 38.126C 10.2996 38.6668 9.42693 38.6668 8.88614 38.126C 8.34535 37.5853 8.34535 36.7126 8.88614 36.1718C 9.42693 35.631 10.2996 35.631 10.8403 36.1718C 11.3688 36.7126 11.3688 37.5853 10.8403 38.126ZM 23.512 44.2714C 22.75 44.2714 22.1354 43.6569 22.1354 42.8949C 22.1354 42.1328 22.75 41.5183 23.512 41.5183C 24.274 41.5183 24.8886 42.1328 24.8886 42.8949C 24.8886 43.6569 24.2618 44.2714 23.512 44.2714ZM 38.1256 36.1718C 38.6664 36.7126 38.6664 37.5853 38.1256 38.126C 37.5848 38.6668 36.7122 38.6668 36.1714 38.126C 35.6306 37.5853 35.6306 36.7126 36.1714 36.1718C 36.7122 35.631 37.5848 35.631 38.1256 36.1718ZM 35.7535 27.4331C 34.93 27.6912 34.5367 28.6253 34.9423 29.3873C 35.7904 31.0097 35.5077 32.9516 34.2295 34.2299C 32.9513 35.5081 31.0093 35.7908 29.3869 34.9427C 28.6249 34.5371 27.6785 34.9304 27.4327 35.7539C 26.8796 37.5238 25.2696 38.7652 23.512 38.7652C 21.7545 38.7652 20.1321 37.5238 19.5913 35.7539C 19.3332 34.9304 18.3868 34.5494 17.6371 34.9427C 16.0147 35.7908 14.0728 35.5081 12.7945 34.2299C 11.5163 32.9516 11.2337 31.0097 12.0817 29.3873C 12.4873 28.6253 12.094 27.6789 11.2705 27.4331C 9.50066 26.88 8.25931 25.2699 8.25931 23.5123C 8.25931 21.7547 9.50066 20.1323 11.2705 19.5915C 12.094 19.3334 12.4873 18.3993 12.0817 17.6373C 11.2337 16.0149 11.5163 14.073 12.7945 12.7947C 14.0728 11.5165 16.0147 11.2338 17.6371 12.0819C 18.3991 12.4874 19.3455 12.0941 19.5913 11.2707C 20.1444 9.50078 21.7545 8.25941 23.512 8.25941C 25.2696 8.25941 26.8919 9.50078 27.4327 11.2707C 27.6908 12.0941 28.6249 12.4874 29.3869 12.0819C 31.0093 11.2338 32.9513 11.5165 34.2295 12.7947C 35.5077 14.073 35.7904 16.0149 34.9423 17.6373C 34.5367 18.3993 34.93 19.3457 35.7535 19.5915C 37.5234 20.1446 38.7647 21.7547 38.7647 23.5123C 38.7647 25.2699 37.5234 26.88 35.7535 27.4331ZM 42.8944 24.8766C 42.1324 24.8766 41.5178 24.262 41.5178 23.5C 41.5178 22.738 42.1324 22.1234 42.8944 22.1234C 43.6564 22.1234 44.2709 22.738 44.2709 23.5C 44.2709 24.262 43.6564 24.8766 42.8944 24.8766Z" fill="white"/>
<path id="Vector_2" d="M 11.6269 0C 10.2995 0 9.11967 0.540796 8.21016 1.57322C 7.28836 0.540796 6.12077 0 4.79338 0C 2.10173 0 2.40052e-05 2.23692 2.40052e-05 5.08839C 2.40052e-05 8.08734 2.33521 10.0539 5.55536 12.7701C 6.12073 13.2495 6.69843 13.7411 7.31296 14.2696C 7.82917 14.7244 8.60345 14.7244 9.11965 14.2696C 9.73419 13.7411 10.3119 13.2495 10.8773 12.7701C 13.9868 10.1399 16.4326 8.13651 16.4326 5.08839C 16.4203 2.23692 14.3186 0 11.6269 0Z" transform="translate(15.301 16.605)" fill="white"/>
</g>
</g>
</svg>
