<svg width="30" height="30" viewBox="0 0 30 30" version="1.1" xmlns="http://www.w3.org/2000/svg" xmlns:xlink="http://www.w3.org/1999/xlink">
<g id="Canvas" fill="none">
<path id="Vector" opacity="0.8" d="M 4.22093 25.4215C 6.95058 28.2384 10.7703 30 15 30C 23.2674 30 30 23.2674 30 15C 30 6.73256 23.2674 0 15 0C 6.73256 0 0 6.73256 0 15C 0 18.9419 1.53488 22.5349 4.02907 25.2122C 4.0814 25.2994 4.15116 25.3605 4.22093 25.4215ZM 15 28.2733C 11.7384 28.2733 8.73837 27.0872 6.42733 25.125C 10.3169 23.8343 11.7558 22.2645 12.2878 21.218C 13.0291 21.5407 13.8576 21.7151 14.7733 21.7238C 14.7907 21.7238 14.8169 21.7238 14.8343 21.7238C 14.843 21.7238 14.8953 21.7238 14.9128 21.7238C 14.9302 21.7238 14.9564 21.7238 14.9738 21.7238C 15.968 21.7064 16.8663 21.5058 17.6424 21.1308C 18.1395 22.1773 19.5523 23.7994 23.5552 25.125C 21.2529 27.0872 18.2616 28.2733 15 28.2733ZM 10.1512 12.2267C 10.1512 12.2093 10.1512 12.1919 10.1512 12.1744C 10.3605 7.63081 13.7093 7.27326 14.7384 7.27326C 14.782 7.27326 14.8169 7.27326 14.843 7.27326C 14.8692 7.27326 14.8866 7.27326 14.9128 7.27326C 14.939 7.27326 14.9651 7.27326 15.0174 7.27326C 16.0378 7.27326 19.3953 7.63081 19.6047 12.1744C 19.6047 12.1919 19.6047 12.2093 19.6047 12.2267C 19.6134 12.2703 20.0407 16.4738 18.0785 18.6802C 17.3023 19.5523 16.2645 19.9884 14.9128 19.9971C 14.9041 19.9971 14.8866 19.9971 14.8866 19.9971C 14.8779 19.9971 14.8692 19.9971 14.8605 19.9971C 13.5 19.9797 12.4709 19.5523 11.6948 18.6802C 9.72384 16.4913 10.1424 12.2703 10.1512 12.2267ZM 15 1.72674C 22.3169 1.72674 28.2733 7.68314 28.2733 15C 28.2733 18.3488 27.0174 21.4186 24.968 23.7558C 19.3343 22.1163 19.1163 20.1279 19.1163 20.1017C 19.1163 20.1366 19.1163 20.1453 19.1163 20.1453L 19.0552 20.1453C 19.1599 20.0407 19.2645 19.936 19.3692 19.8227C 21.7674 17.1279 21.3663 12.5145 21.3227 12.061C 21.0872 7.24709 17.782 5.53779 15.0174 5.53779C 14.9651 5.53779 14.9128 5.53779 14.8779 5.53779C 14.843 5.53779 14.7994 5.53779 14.7384 5.53779C 11.9738 5.53779 8.65988 7.24709 8.43314 12.061C 8.38953 12.5058 7.99709 17.1192 10.3866 19.8227C 10.5262 19.9797 10.6744 20.1279 10.8227 20.2674C 10.6395 20.7733 9.71512 22.3779 5.03198 23.7471C 2.97384 21.4099 1.72674 18.3488 1.72674 15C 1.72674 7.68314 7.68314 1.72674 15 1.72674Z" transform="translate(0.000488281 0)" fill="#765ADC"/>
</g>
</svg>
