<svg width="35" height="34" viewBox="0 0 35 34" fill="none" xmlns="http://www.w3.org/2000/svg">
<path d="M5.17709 10.9381L3.9483 8.54033H7.99653L8.87963 4.99219L13.811 7.90452L17.9807 3.79331L19.6497 6.36349L24.4568 5.33434V9.69072H28.3565L27.9163 10.9381H30.517L31.7917 7.29296H26.909V2.37351L20.7786 3.66938L18.3102 0L13.4194 4.84401L7.35918 1.19888L6.08449 6.06983H4.12082e-08L2.45216 10.9381H5.17709Z" transform="translate(1.60388)" fill="#2D9CDB"/>
<path d="M4.65317 9.15998L6.21952 3.35686L7.82369 9.15998H10.4703L12.5039 3.28871e-07H9.89236L8.90394 5.15383L7.56983 3.28871e-07H4.94213L3.5027 5.11881L2.6196 3.28871e-07H0L1.95255 9.15998H4.65317Z" transform="translate(0 12.4385)" fill="#EB5757"/>
<path d="M8.90394 5.15383L7.56983 3.28871e-07H4.94213L3.5027 5.11881L2.6196 3.28871e-07H0L1.95255 9.15998H4.65316L6.21952 3.35686L7.82369 9.15998H10.4703L12.5039 3.28871e-07H9.89237L8.90394 5.15383Z" transform="translate(22.4961 12.4385)" fill="#F2C94C"/>
<path d="M4.67207 0.00806993C4.67207 0.00806993 3.29665e-07 -0.409518 3.29665e-07 4.76318C3.29665e-07 9.93587 4.67207 9.39705 4.67207 9.39705C4.67207 9.39705 9.31713 9.75536 9.31713 4.70121C9.31713 -0.352941 4.67207 0.00806993 4.67207 0.00806993ZM4.66667 7.29564C4.66667 7.29564 2.78434 7.59199 2.78434 4.73893C2.78434 1.88587 4.66667 2.11486 4.66667 2.11486C4.66667 2.11486 6.5382 1.9155 6.5382 4.70391C6.5382 7.49231 4.66667 7.29564 4.66667 7.29564Z" transform="translate(12.833 12.3198)" fill="#F2994A"/>
<path d="M26.6146 0L27.8434 2.39776H23.7951L22.912 5.9459L17.9807 3.03357L13.811 7.14478L12.142 4.5746L7.33488 5.60375V1.24737H3.43519L3.87539 0H1.27469L4.12082e-08 3.64513H4.88272V8.56458L11.0131 7.26871L13.4815 10.9381L18.3723 6.09408L24.4325 9.73921L25.7072 4.86826H31.7917L29.3395 0H26.6146Z" transform="translate(1.604 23.062)" fill="#27AE60"/>
</svg>
