<svg width="38" height="46" viewBox="0 0 38 46" version="1.1" xmlns="http://www.w3.org/2000/svg" xmlns:xlink="http://www.w3.org/1999/xlink">
<g id="Canvas" fill="none">
<g id="&#208;&#154;&#208;&#187;&#208;&#184;&#208;&#181;&#208;&#189;&#209;&#130;&#208;&#190;-" opacity="0.5">
<path id="Vector" d="M 29.4456 7.67063L 28.4912 7.67063L 28.4912 2.87797C 28.4912 1.29628 27.2186 9.07322e-08 25.6397 9.07322e-08L 12.3485 9.07322e-08C 10.7814 9.07322e-08 9.49705 1.28438 9.49705 2.87797L 9.49705 7.67063L 8.54262 7.67063C 3.82945 7.67063 -1.15068e-05 11.5357 -1.15068e-05 16.2927L -1.15068e-05 31.622C -1.15068e-05 36.046 3.33456 39.6613 7.59999 40.1489L 7.59999 45.0367C 7.59999 45.5719 8.02419 46 8.55442 46L 29.4456 46C 29.9758 46 30.4 45.5719 30.4 45.0367L 30.4 40.1489C 34.6654 39.6613 38 36.046 38 31.622L 38 16.2927C 37.9882 11.5357 34.1588 7.67063 29.4456 7.67063ZM 12.0422 7.67063L 12.0422 2.87797C 12.0422 2.71148 12.1836 2.56877 12.3485 2.56877L 25.6397 2.56877C 25.8047 2.56877 25.9461 2.71148 25.9461 2.87797L 25.9461 7.67063L 12.0422 7.67063ZM 35.4431 31.622C 35.4431 34.6784 33.1454 37.259 30.1054 37.6039L 7.89456 37.6039C 4.85456 37.259 2.55691 34.6903 2.55691 31.622L 2.55691 16.2927C 2.55691 12.9509 5.25519 10.2394 8.55442 10.2394L 29.4456 10.2394C 32.7566 10.2394 35.4431 12.9628 35.4431 16.2927L 35.4431 31.622Z" fill="#333333"/>
<path id="Vector_2" d="M 14.7463 0.255588C 14.3456 -0.113078 13.7211 -0.0774004 13.3559 0.326943C 11.8359 2.03946 9.76208 2.97896 7.53511 2.97896C 5.30813 2.97896 3.2461 2.03946 1.71432 0.326943C 1.34904 -0.0774004 0.724542 -0.113078 0.323922 0.255588C -0.0766984 0.624254 -0.11203 1.25456 0.253241 1.6589C 2.12673 3.75197 4.77789 4.965 7.52331 4.965C 10.2687 4.965 12.9317 3.76386 14.7934 1.6589C 15.1822 1.24266 15.1469 0.624254 14.7463 0.255588Z" transform="translate(11.459 27.1089)" fill="#333333"/>
<path id="Vector_3" d="M 1.96776 3.97208C 3.05452 3.97208 3.93551 3.0829 3.93551 1.98604C 3.93551 0.88918 3.05452 0 1.96776 0C 0.881004 0 -1.15068e-05 0.88918 -1.15068e-05 1.98604C -1.15068e-05 3.0829 0.881004 3.97208 1.96776 3.97208Z" transform="translate(11.1348 18.1836)" fill="#333333"/>
<path id="Vector_4" d="M 1.96775 3.97208C 3.05451 3.97208 3.93549 3.0829 3.93549 1.98604C 3.93549 0.88918 3.05451 0 1.96775 0C 0.880987 0 0 0.88918 0 1.98604C 0 3.0829 0.880987 3.97208 1.96775 3.97208Z" transform="translate(22.9292 18.1836)" fill="#333333"/>
</g>
</g>
</svg>
