<svg width="34" height="44" viewBox="0 0 34 44" version="1.1" xmlns="http://www.w3.org/2000/svg" xmlns:xlink="http://www.w3.org/1999/xlink">
<g id="Canvas" fill="none">
<g id="&#208;&#161;&#208;&#176;&#208;&#188;&#208;&#190;&#209;&#128;&#208;&#176;&#208;&#183;&#208;&#178;&#208;&#184;&#209;&#130;&#208;&#184;&#208;&#181;">
<path id="Vector" d="M 0.543917 6.45802L 5.56928 8.26134C 5.21455 9.37378 5.04898 10.6385 5.07263 12.0554C 5.1554 20.1235 9.88516 24.9245 14.2602 24.9245C 18.5879 24.9245 23.3649 20.1118 23.4477 12.0554C 23.4595 10.6853 23.3058 9.45575 22.9747 8.36673L 26.6284 7.05522L 26.6284 10.9195C 26.6284 11.7041 26.3564 12.4418 25.8835 13.0741C 25.6588 13.3786 25.5406 13.765 25.5761 14.1748C 25.647 14.9828 26.321 15.6386 27.1487 15.6737C 28.1065 15.7206 28.8869 14.9711 28.8869 14.0343C 28.8869 13.6713 28.7686 13.3434 28.5794 13.0741C 28.0828 12.3949 27.7872 11.5987 27.7872 10.7556L 27.7872 6.63366L 27.9054 6.58682L 28.2957 6.44631C 28.6267 6.32921 28.8396 6.02475 28.8396 5.68516C 28.8396 5.34557 28.6267 5.04112 28.2957 4.92402L 14.6977 0.0526944C 14.5203 -0.017565 14.3193 -0.017565 14.1419 0.0526944L 0.543917 4.92402C 0.212835 5.04112 0 5.34557 0 5.68516C 0.0118243 6.03646 0.22466 6.34092 0.543917 6.45802ZM 13.1132 12.3715C 13.2196 13.1561 21.2957 9.11617 21.2365 14.1163C 21.2011 17.641 17.8902 22.969 14.2602 22.969C 10.4409 22.969 7.8159 18.5426 7.28381 14.1163C 6.78718 10.0178 12.7703 9.83047 13.1132 12.3715Z" transform="translate(2.54907 0)" fill="white"/>
<path id="Vector_2" d="M 30.5486 5.94863C 30.2176 5.17578 29.4253 4.67225 28.6804 4.3678L 26.4929 3.37245C 24.5655 2.49421 22.7564 1.35835 21.1364 7.14716e-07L 17.5064 3.87598L 18.9017 15.1175C 18.9135 15.1526 18.9017 15.1995 18.878 15.2229L 17.1044 17.6234C 17.0807 17.6585 17.0334 17.682 16.9861 17.682C 16.9388 17.682 16.8915 17.6585 16.8679 17.6234L 15.0942 15.2229C 15.0706 15.1878 15.0587 15.1526 15.0705 15.1175L 16.4658 3.87598L 12.8358 7.14716e-07C 11.2158 1.35835 9.40669 2.49421 7.47933 3.37245L 5.29182 4.3678C 4.53506 4.67225 3.80196 5.14065 3.42358 5.94863C 3.42358 5.94863 -2.11021 19.0052 0.893172 19.0052L 33.1263 19.0052C 36.0943 19.0169 30.5486 5.94863 30.5486 5.94863ZM 12.7648 16.429L 2.69047 16.429C 2.84418 15.5391 3.19893 14.0753 3.97934 11.7568C 4.74792 9.48503 5.58743 7.47092 5.7648 7.03766C 5.78844 7.01424 5.9067 6.90885 6.24961 6.76833L 6.29689 6.74491L 6.34421 6.72149L 8.53171 5.72615C 9.91516 5.09381 11.2395 4.34438 12.4929 3.48955L 13.6871 4.76593L 12.4455 14.8013C 12.3864 15.3517 12.4928 15.9255 12.7648 16.429ZM 21.1838 16.429C 21.4557 15.9255 21.5621 15.3517 21.4912 14.7896L 20.2496 4.76593L 21.4439 3.48955C 22.6973 4.34438 24.0216 5.09381 25.405 5.72615L 27.5925 6.72149L 27.6398 6.74491L 27.6871 6.76833C 27.9591 6.87372 28.1128 6.97911 28.1719 7.03766C 28.3375 7.44751 29.177 9.46161 29.9574 11.745C 30.7496 14.0753 31.1044 15.5508 31.2581 16.4407L 21.1838 16.4407L 21.1838 16.429Z" transform="translate(0 24.9949)" fill="white"/>
</g>
</g>
</svg>
