<svg width="27" height="25" viewBox="0 0 27 25" version="1.1" xmlns="http://www.w3.org/2000/svg" xmlns:xlink="http://www.w3.org/1999/xlink">
<g id="Canvas" fill="none">
<path id="Vector" d="M 26.8625 0.100206C 26.7423 -0.00525794 26.5713 -0.0297263 26.4263 0.0375414L 0.23354 12.2129C 0.0925262 12.2785 0.00171917 12.4192 2.41054e-05 12.5748C -0.00167096 12.7303 0.0861496 12.873 0.225791 12.9416L 7.63831 16.581C 7.77424 16.6477 7.93632 16.6326 8.05772 16.5419L 15.2647 11.1529L 9.60693 16.9752C 9.52621 17.0583 9.48505 17.1721 9.49392 17.2875L 10.0573 24.6272C 10.0698 24.7898 10.1787 24.9289 10.3336 24.9798C 10.375 24.9934 10.4176 25 10.4596 25C 10.575 25 10.6872 24.9505 10.7652 24.8601L 14.6996 20.2989L 19.5632 22.6238C 19.6688 22.6743 19.791 22.6764 19.8982 22.6297C 20.0055 22.583 20.0872 22.492 20.1222 22.3804L 26.9814 0.524728C 27.0294 0.372103 26.9826 0.20567 26.8625 0.100206Z" fill="white"/>
</g>
</svg>
