<svg width="21" height="20" viewBox="0 0 21 20" version="1.1" xmlns="http://www.w3.org/2000/svg" xmlns:xlink="http://www.w3.org/1999/xlink">
<g id="Canvas" fill="none">
<g id="Group">
<path id="Vector" d="M 19.9174 1.73637C 19.5056 1.64749 19.1005 1.91137 19.0123 2.3254L 18.4584 4.9256C 16.6947 1.89916 13.4575 -1.63791e-08 9.90941 -1.63791e-08C 4.44533 -1.63791e-08 1.86099e-09 4.47132 1.86099e-09 9.96749C 1.86099e-09 10.3909 0.341249 10.7342 0.762262 10.7342C 1.18321 10.7342 1.52452 10.3909 1.52452 9.96749C 1.52452 5.31694 5.28595 1.53346 9.90941 1.53346C 12.9236 1.53346 15.673 3.15298 17.1616 5.73164L 14.6202 5.18383C 14.2085 5.09507 13.8033 5.35889 13.7152 5.77293C 13.627 6.18696 13.8893 6.59461 14.3009 6.68331L 18.6632 7.62363C 18.7373 7.63964 18.8126 7.64424 18.8868 7.63798C 19.0104 7.62749 19.1309 7.5867 19.237 7.51763C 19.4068 7.40716 19.5259 7.23339 19.5683 7.03459L 20.5032 2.64669C 20.5913 2.23272 20.329 1.82519 19.9174 1.73637Z" transform="translate(0.479736 0)" fill="#BB6BD9"/>
<path id="Vector_2" d="M 19.6302 0.000489232C 19.2095 0.0144744 18.8796 0.368888 18.8935 0.792061C 18.9674 3.04367 18.1652 5.18935 16.6346 6.83414C 15.104 8.47874 13.0284 9.42557 10.7899 9.49991C 10.6966 9.50298 10.6038 9.50451 10.5109 9.50451C 7.59016 9.50438 4.89955 7.97859 3.38003 5.50647L 6.02947 6.22106C 6.43609 6.33067 6.85412 6.08808 6.96315 5.67902C 7.07218 5.27001 6.83094 4.8496 6.42432 4.7398L 2.11516 3.57768C 1.9199 3.52512 1.71177 3.5526 1.53676 3.65417C 1.36162 3.75575 1.23387 3.92326 1.18148 4.11967L 0.0261991 8.45421C -0.0828348 8.86322 0.158406 9.28363 0.565027 9.39336C 0.631191 9.41121 0.697538 9.4198 0.76291 9.4198C 1.0994 9.4198 1.40742 9.19383 1.49871 8.85138L 2.14809 6.4152C 3.95459 9.27645 7.09908 11.0381 10.5105 11.038C 10.6201 11.038 10.7303 11.0362 10.8403 11.0325C 13.4857 10.9445 15.9388 9.82574 17.7477 7.88205C 19.5566 5.93835 20.5046 3.40244 20.4172 0.741457C 20.4034 0.318345 20.0508 -0.0145387 19.6302 0.000489232Z" transform="translate(0 8.96191)" fill="#BB6BD9"/>
</g>
</g>
</svg>
